{"title":"WWE The Monday Night War S01E11 Monday Night Jericho 480p WebRip","uid":11344206,"size":337911879,"categoryP":"video","categoryS":"tv_shows","magnet":"?xt=urn:btih:214409b9f658cc6b9fc92a1b06268b407fbcf78d&amp;dn=WWE+The+Monday+Night+War+S01E11+Monday+Night+Jericho+480p+WebRip&amp;tr=udp%3A%2F%2Ftracker.openbittorrent.com%3A80&amp;tr=udp%3A%2F%2Fopen.demonii.com%3A1337&amp;tr=udp%3A%2F%2Ftracker.coppersurfer.tk%3A6969&amp;tr=udp%3A%2F%2Fexodus.desync.com%3A6969","seeders":1,"leechers":0,"uploader":"RDS31","files":1,"time":1414837545,"description":"Info:-\n\nGeneral\nFormat                                   : MPEG-4\nFormat profile                           : Base Media\nCodec ID                                 : isom\nFile size                                : 322 MiB\nDuration                                 : 54mn 6s\nOverall bit rate mode                    : Variable\nOverall bit rate                         : 833 Kbps\nWriting application                      : Lavf56.4.101\n\nVideo\nID                                       : 1\nFormat                                   : AVC\nFormat/Info                              : Advanced Video Codec\nFormat profile                           : &lt;a class=&quot;__cf_email__&quot; href=&quot;/cdn-cgi/l/email-protection&quot; data-cfemail=&quot;1850717f7058542b3629&quot;&gt;[email&amp;#160;protected]&lt;/a&gt;&lt;script cf-hash='f9e31' type=&quot;text/javascript&quot;&gt;\n/* &lt;![CDATA[ */!function(){try{var t=&quot;currentScript&quot;in document?document.currentScript:function(){for(var t=document.getElementsByTagName(&quot;script&quot;),e=t.length;e--;)if(t[e].getAttribute(&quot;cf-hash&quot;))return t[e]}();if(t&amp;&amp;t.previousSibling){var e,r,n,i,c=t.previousSibling,a=c.getAttribute(&quot;data-cfemail&quot;);if(a){for(e=&quot;&quot;,r=parseInt(a.substr(0,2),16),n=2;a.length-n;n+=2)i=parseInt(a.substr(n,2),16)^r,e+=String.fromCharCode(i);e=document.createTextNode(e),c.parentNode.replaceChild(e,c)}}}catch(u){}}();/* ]]&gt; */&lt;/script&gt;\nFormat settings, CABAC                   : Yes\nFormat settings, ReFrames                : 4 frames\nCodec ID                                 : avc1\nCodec ID/Info                            : Advanced Video Coding\nDuration                                 : 54mn 6s\nBit rate                                 : 700 Kbps\nWidth                                    : 848 pixels\nHeight                                   : 480 pixels\nDisplay aspect ratio                     : 16:9\nFrame rate mode                          : Constant\nFrame rate                               : 29.970 fps\nColor space                              : YUV\nChroma subsampling                       : 4:2:0\nBit depth                                : 8 bits\nScan type                                : Progressive\nBits/(Pixel*Frame)                       : 0.057\nStream size                              : 269 MiB (84%)\n\nAudio\nID                                       : 2\nFormat                                   : AAC\nFormat/Info                              : Advanced Audio Codec\nFormat profile                           : LC\nCodec ID                                 : 40\nDuration                                 : 54mn 6s\nDuration_LastFrame                       : -6ms\nBit rate mode                            : Variable\nBit rate                                 : 128 Kbps\nMaximum bit rate                         : 800 Kbps\nChannel(s)                               : 2 channels\nChannel positions                        : Front: L R\nSampling rate                            : 44.1 KHz\nCompression mode                         : Lossy\nDelay relative to video                  : 67ms\nStream size                              : 49.5 MiB (15%)\n\nENJOY AND SEED!!!","torrent":{"xt":"urn:btih:214409b9f658cc6b9fc92a1b06268b407fbcf78d","amp;dn":"WWE+The+Monday+Night+War+S01E11+Monday+Night+Jericho+480p+WebRip","amp;tr":["udp%3A%2F%2Ftracker.openbittorrent.com%3A80","udp%3A%2F%2Fopen.demonii.com%3A1337","udp%3A%2F%2Ftracker.coppersurfer.tk%3A6969","udp%3A%2F%2Fexodus.desync.com%3A6969"],"infoHash":"214409b9f658cc6b9fc92a1b06268b407fbcf78d","infoHashBuffer":{"type":"Buffer","data":[33,68,9,185,246,88,204,107,159,201,42,27,6,38,139,64,127,188,247,141]},"announce":[],"urlList":[]}}